<svg width="236" height="35" viewBox="0 0 236 35" fill="none" xmlns="http://www.w3.org/2000/svg">
<path d="M235.674 33.8505H226.333V18.9153C226.333 18.0885 226.227 17.376 226.016 16.7779C225.823 16.1798 225.48 15.7224 224.987 15.4058C224.494 15.0891 223.826 14.9308 222.982 14.9308C222.331 14.9308 221.75 15.0451 221.24 15.2738C220.73 15.5025 220.29 15.8104 219.921 16.1974C219.569 16.5668 219.287 16.989 219.076 17.464L217.651 13.6114H219.155C219.419 12.3976 219.859 11.3157 220.475 10.3658C221.108 9.39826 221.979 8.63303 223.087 8.0701C224.213 7.50717 225.647 7.22571 227.388 7.22571C229.288 7.22571 230.845 7.59513 232.059 8.33397C233.29 9.07282 234.196 10.1899 234.777 11.6852C235.375 13.1628 235.674 15.0363 235.674 17.3056V33.8505ZM219.182 33.8505H209.841V7.859H219.129L218.839 14.535L219.182 15.4849V33.8505Z" fill="#183975"/>
<path d="M195.135 34.5366C190.157 34.5366 186.498 33.4547 184.158 31.291C181.836 29.1272 180.675 25.9607 180.675 21.7915V19.7597C180.675 15.6257 181.765 12.4768 183.947 10.3131C186.146 8.14932 189.347 7.06744 193.552 7.06744C196.349 7.06744 198.68 7.53362 200.544 8.46597C202.409 9.38073 203.808 10.7089 204.74 12.4504C205.69 14.1744 206.165 16.259 206.165 18.7042V19.5222C206.165 20.2259 206.13 20.9472 206.059 21.686C206.007 22.4072 205.919 23.0757 205.795 23.6914H197.431C197.501 22.6183 197.545 21.6068 197.563 20.6569C197.598 19.7069 197.615 18.8538 197.615 18.0973C197.615 17.1826 197.475 16.4173 197.193 15.8016C196.912 15.1683 196.472 14.6934 195.874 14.3767C195.276 14.0425 194.502 13.8754 193.552 13.8754C192.127 13.8754 191.089 14.2448 190.438 14.9836C189.805 15.7225 189.488 16.7692 189.488 18.1237V20.4722L189.541 21.4749V23.1109C189.541 23.6562 189.638 24.184 189.831 24.6941C190.025 25.2043 190.376 25.6617 190.887 26.0663C191.414 26.4533 192.153 26.7611 193.103 26.9898C194.071 27.2185 195.32 27.3329 196.85 27.3329C198.416 27.3329 199.946 27.2097 201.442 26.9634C202.937 26.6996 204.379 26.3389 205.769 25.8816L205.03 32.6631C203.816 33.2612 202.365 33.7186 200.676 34.0352C199.005 34.3695 197.158 34.5366 195.135 34.5366ZM203.922 23.6914H185.609V18.2029H203.922V23.6914Z" fill="#183975"/>
<path d="M177.147 33.8505H167.806V18.6514C167.806 17.8774 167.709 17.2177 167.515 16.6724C167.34 16.1094 167.032 15.6784 166.592 15.3794C166.152 15.0803 165.545 14.9308 164.771 14.9308C164.155 14.9308 163.61 15.0451 163.135 15.2738C162.678 15.5025 162.282 15.8104 161.948 16.1974C161.631 16.5668 161.385 16.989 161.209 17.464L160.391 13.6114H161.183C161.446 12.3976 161.877 11.3157 162.475 10.3658C163.074 9.39826 163.909 8.63303 164.982 8.0701C166.073 7.50717 167.471 7.22571 169.178 7.22571C171.007 7.22571 172.503 7.58633 173.664 8.30759C174.842 9.02884 175.713 10.1195 176.276 11.5796C176.857 13.0221 177.147 14.8428 177.147 17.0418V33.8505ZM145.482 33.8505H136.141V7.859H145.429L145.139 15.2474L145.482 15.4849V33.8505ZM161.314 33.8505H151.973V18.6514C151.973 17.8774 151.877 17.2177 151.683 16.6724C151.507 16.1094 151.199 15.6784 150.76 15.3794C150.32 15.0803 149.713 14.9308 148.939 14.9308C148.323 14.9308 147.778 15.0451 147.303 15.2738C146.845 15.5025 146.45 15.8104 146.115 16.1974C145.799 16.5668 145.552 16.989 145.377 17.464L143.952 13.6114H145.456C145.72 12.3976 146.142 11.3157 146.722 10.3658C147.32 9.39826 148.156 8.63303 149.229 8.0701C150.302 7.50717 151.674 7.22571 153.345 7.22571C155.756 7.22571 157.567 7.85021 158.781 9.09921C160.013 10.3482 160.778 12.1513 161.077 14.5086C161.112 14.8604 161.156 15.309 161.209 15.8543C161.279 16.3997 161.314 16.8747 161.314 17.2793V33.8505Z" fill="#183975"/>
<path d="M131.856 33.8504H122.699L122.963 27.2009L122.778 26.9634V18.8889L122.699 17.9389C122.699 16.7251 122.304 15.8367 121.512 15.2738C120.738 14.6933 119.41 14.403 117.527 14.403C115.821 14.403 114.176 14.6053 112.593 15.0099C111.027 15.4145 109.523 15.8807 108.081 16.4085L108.846 9.31028C109.726 8.92327 110.702 8.57144 111.775 8.25479C112.848 7.92055 114.018 7.65668 115.285 7.46317C116.551 7.26967 117.897 7.17291 119.322 7.17291C121.732 7.17291 123.737 7.45438 125.338 8.01731C126.956 8.56264 128.241 9.34546 129.191 10.3658C130.141 11.3685 130.818 12.5647 131.222 13.9544C131.645 15.3442 131.856 16.8746 131.856 18.5458V33.8504ZM114.651 34.4837C112.048 34.4837 110.077 33.8241 108.74 32.5047C107.421 31.1677 106.761 29.2766 106.761 26.8314V26.1717C106.761 23.5682 107.553 21.6507 109.136 20.4193C110.737 19.1879 113.288 18.3523 116.789 17.9125L123.412 17.0681L123.966 22.3984L118.345 23.2164C117.325 23.3571 116.613 23.6034 116.208 23.9552C115.821 24.2895 115.628 24.7908 115.628 25.4593V25.5648C115.628 26.1805 115.83 26.6819 116.234 27.0689C116.657 27.4559 117.352 27.6494 118.319 27.6494C119.128 27.6494 119.823 27.5439 120.404 27.3328C121.002 27.1041 121.494 26.805 121.881 26.4356C122.286 26.0662 122.603 25.6616 122.831 25.2218L124.151 28.3883H122.647C122.383 29.5669 121.96 30.6136 121.38 31.5284C120.817 32.4431 119.999 33.1644 118.926 33.6921C117.853 34.2199 116.428 34.4837 114.651 34.4837Z" fill="#183975"/>
<path d="M96.9134 34.4574C94.5034 34.4574 92.5859 34.0967 91.161 33.3755C89.7537 32.6366 88.7421 31.546 88.1264 30.1035C87.5283 28.6609 87.2293 26.8842 87.2293 24.7732V10.8407H96.4912V23.19C96.4912 24.3158 96.7463 25.1426 97.2564 25.6704C97.7666 26.1805 98.7693 26.4356 100.265 26.4356C101.074 26.4356 101.874 26.3477 102.666 26.1717C103.475 25.9782 106.624 25.5176 107.549 22.74L109.864 29.2211C109.864 29.2211 109.864 29.6841 108.012 31.0729C106.161 32.4617 104.064 33.1644 104.064 33.1644C103.15 33.5514 102.094 33.8592 100.898 34.0879C99.7017 34.3342 98.3735 34.4574 96.9134 34.4574ZM103.8 15.1683H83.9836V7.85898H104.592L103.8 15.1683ZM96.2273 8.49228H87.3612L87.3348 1.97462L96.544 1.15662L96.2273 8.49228Z" fill="#183975"/>
<path d="M81.806 33.8505H72.4649V18.9153C72.4649 18.0885 72.3593 17.376 72.1482 16.7779C71.9547 16.1798 71.6117 15.7224 71.1191 15.4058C70.6266 15.0891 69.9581 14.9308 69.1137 14.9308C68.4628 14.9308 67.8823 15.0451 67.3721 15.2738C66.862 15.5025 66.4222 15.8104 66.0528 16.1974C65.7009 16.5668 65.4195 16.989 65.2084 17.464L63.7835 13.6114H65.2875C65.5514 12.3976 65.9912 11.3157 66.6069 10.3658C67.2402 9.39826 68.111 8.63303 69.2192 8.0701C70.3451 7.50717 71.7788 7.22571 73.5204 7.22571C75.4203 7.22571 76.9771 7.59513 78.1909 8.33397C79.4223 9.07282 80.3283 10.1899 80.9088 11.6852C81.5069 13.1628 81.806 15.0363 81.806 17.3056V33.8505ZM65.3139 33.8505H55.9728V7.859H65.2612L64.9709 14.535L65.3139 15.4849V33.8505Z" fill="#183975"/>
<path d="M41.267 34.5366C36.2886 34.5366 32.6296 33.4547 30.2899 31.291C27.9679 29.1272 26.8068 25.9607 26.8068 21.7915V19.7597C26.8068 15.6257 27.8975 12.4768 30.0788 10.3131C32.2778 8.14932 35.4794 7.06744 39.6838 7.06744C42.4809 7.06744 44.8117 7.53362 46.6764 8.46597C48.5411 9.38073 49.9397 10.7089 50.872 12.4504C51.822 14.1744 52.2969 16.259 52.2969 18.7042V19.5222C52.2969 20.2259 52.2617 20.9472 52.1914 21.686C52.1386 22.4072 52.0506 23.0757 51.9275 23.6914H43.5627C43.6331 22.6183 43.6771 21.6068 43.6947 20.6569C43.7299 19.7069 43.7475 18.8538 43.7475 18.0973C43.7475 17.1826 43.6067 16.4173 43.3253 15.8016C43.0438 15.1683 42.604 14.6934 42.0059 14.3767C41.4078 14.0425 40.6338 13.8754 39.6838 13.8754C38.2589 13.8754 37.221 14.2448 36.5701 14.9836C35.9368 15.7225 35.6202 16.7692 35.6202 18.1237V20.4722L35.6729 21.4749V23.1109C35.6729 23.6562 35.7697 24.184 35.9632 24.6941C36.1567 25.2043 36.5085 25.6617 37.0187 26.0663C37.5464 26.4533 38.2853 26.7611 39.2352 26.9898C40.2028 27.2185 41.4518 27.3329 42.9822 27.3329C44.5479 27.3329 46.0783 27.2097 47.5736 26.9634C49.0689 26.6996 50.5114 26.3389 51.9011 25.8816L51.1623 32.6631C49.9485 33.2612 48.4972 33.7186 46.8084 34.0352C45.1372 34.3695 43.2901 34.5366 41.267 34.5366ZM50.054 23.6914H31.7412V18.2029H40.8976H50.054V23.6914Z" fill="#183975"/>
<path d="M18.6294 33.8505H9.05083V8.07013H13.8401H14.1808C18.2031 8.38907 18.6294 9.66575 18.6294 9.66575V9.77787V33.8505Z" fill="#183975"/>
<path d="M26.4636 8.38907L14.1808 8.07013H13.8401H9.05083H0V0.127563H34.8687L26.4636 8.38907Z" fill="#183975"/>
</svg>
